# xmcd
#
# Track frame offsets:
#	150
#	14188
#	28868
#	43960
#	55861
#	69436
#	81020
#	93964
#	103573
#	113601
#	127448
#	138947
#	151075
#	165645
#	179388
#	193351
#	202873
#	213305
#	228516
#	242910
#	252253
#	258804
#	269292
#	281370
#	290858
#
# Disc length: 4040 seconds
#
# Revision: 0
# Processed by: cddbd v1.5.2PL0 Copyright (c) Steve Scherf et al.
# Submitted via: EasyCDDAExtractor 16.0.6.1
#
DISCID=730fc619
DTITLE=Φυτούση Ζωή - Τα τραγούδια μιάς ζωής-Ζ. Φυτούση
DYEAR=2007
DGENRE=Ελαφρολαϊκή
TTITLE0=Φυτούση Ζωή-Διαμάντη Λ.-Κανακάρης Θ. - Πώς τον αγαπώ [1966, Μ. Λοΐζου-
TTITLE0=Λ. Παπαδόπουλου]]
TTITLE1=Φυτούση Ζωή - Βαριά είν' η καρδιά μου [''Αμόκ'' 1963, Σ. Ξαρχάκου-Ντίν
TTITLE1=ου Δημόπουλου]
TTITLE2=Φυτούση Ζωή-Μάριος - Σαββατόβραδο [1966, Μ. Λοΐζου-Λ. Παπαδόπουλου]
TTITLE3=Φυτούση Ζωή - Έλα, έλα [1965, Γ. Κατσαρού-Πυθαγόρα]
TTITLE4=Φυτούση Ζωή - Χαμογέλασε πατέρα [1965, Γ. Κατσαρού-Πυθαγόρα]
TTITLE5=Φυτούση Ζωή - Κατάρτια στον Ήλιο [1964, Γιώργου Ποταμιάνου]
TTITLE6=Φυτούση Ζωή - Το τραγούδι του μπαρμπα Λιά [1964, Γιώργου Ποταμιάνου]
TTITLE7=Φυτούση Ζωή - Πλάϊ στην θάλασσα [1964, Γιώργου Ποταμιάνου]
TTITLE8=Φυτούση Ζωή - Η πόρτα [1964, Γιώργου Ποταμιάνου]
TTITLE9=Φυτούση Ζωή - Κλεἰσ'το παραθύρι [1967, Άγγελου Σέμπου-Πυθαγόρα]
TTITLE10=Φυτούση Ζωή - Ο τζίτζικας [1966, Τάκη Παναγόπουλου]
TTITLE11=Φυτούση Ζωή - Κάτσε να τα πούμε [1966, Τάκη Παναγόπουλου]
TTITLE12=Φυτούση Ζωή - Η καρδιά μου έχει μεθύσει [1967, Άγγελου Σέμπου-Λ. Παπα
TTITLE12=δόπουλου]
TTITLE13=Φυτούση Ζωή - Παλληκαράκια είκοσι χρονώ [1967, Άγγελου Σέμπου]
TTITLE14=Φυτούση Ζωή - Ανοίξτε απόψε ουρανοί [1967, Σπύρου Βαλσαμάκη-Δ. Παπανι
TTITLE14=κολάου]
TTITLE15=Φυτούση Ζωή - Γρηγοράκη μου, Γρηγόρη [1967, Σπύρου Βαλσαμάκη-Δ. Παπαν
TTITLE15=ιοκολάου]
TTITLE16=Φυτούση Ζωή - Οι γυναίκες θέλουν ξύλο [ομ. ταινία,1961, Λέανδρου Κοκκ
TTITLE16=όρη-Στέφ. Φωτιάδη]
TTITLE17=Φυτούση Ζωή - Νύχτωσε στην γειτονιά [1965, Γ. Κατσαρού-Νέστωρα Μάτσα]
TTITLE18=Φυτούση Ζωή - Ένα καράβι πέρασε [1965, Γ. Κατσαρού-Νέστωρα Μάτσα]
TTITLE19=Φυτούση Ζωή - Ρομανσέρο [θεατρ. έργο 1984, Σάκη Τσιλίκη--Τάκη Καρνάτσ
TTITLE19=ου]
TTITLE20=Φυτούση Ζωή - Lovely boy [θεατρ. έργο 1974, Βασ. Δημητρίου-Πάπλο Νερο
TTITLE20=ύντα]
TTITLE21=Φυτούση Ζωή - Θρήνος [θεατρ. έργο 1974, Βασ. Δημητρίου-Πάπλο Νερούντα
TTITLE21=]
TTITLE22=Φυτούση Ζωή - Οι θεριστές [θεατρ. έργο 2001, Νότη Μαυρουδή-Κυριάκου Χ
TTITLE22=αραλαμπίδη]
TTITLE23=Φυτούση Ζωή - Τα λουλούδια [θεατρ. έργο 2007, Μάριου Τόκα-μτφ. Μαίρη 
TTITLE23=Βιδάλη]
TTITLE24=Φυτούση Ζωή-Ασημακοπούλου Μπεάτα - Το τριανταφυλλάκι [1956 1ος δίσκ.,
TTITLE24=Ζοζέφ Κορίνθιου-Νίκου Φατσέα
EXTD=
EXTT0=
EXTT1=
EXTT2=
EXTT3=
EXTT4=
EXTT5=
EXTT6=
EXTT7=
EXTT8=
EXTT9=
EXTT10=
EXTT11=
EXTT12=
EXTT13=
EXTT14=
EXTT15=
EXTT16=
EXTT17=
EXTT18=
EXTT19=
EXTT20=
EXTT21=
EXTT22=
EXTT23=
EXTT24=
PLAYORDER=
